<svg xmlns="http://www.w3.org/2000/svg" xmlns:xlink="http://www.w3.org/1999/xlink" width="4000" zoomAndPan="magnify" viewBox="0 0 3000 999.749992" height="1333" preserveAspectRatio="xMidYMid meet" version="1.0"><defs><g/></defs><g fill="#ffffff" fill-opacity="1"><g transform="translate(158.331913, 568.090427)"><g><path d="M 134.78125 -132.109375 L 36.5625 -93.40625 L 134.78125 -54.71875 L 134.78125 -38.171875 L 18.6875 -84.609375 L 18.6875 -102.21875 L 134.78125 -148.921875 Z M 134.78125 -132.109375 "/></g></g></g><g fill="#ffffff" fill-opacity="1"><g transform="translate(311.776633, 568.090427)"><g><path d="M 81.40625 -224.71875 L 98.75 -224.71875 L 10.671875 26.6875 L -6.671875 26.6875 Z M 81.40625 -224.71875 "/></g></g></g><g fill="#ffffff" fill-opacity="1"><g transform="translate(401.174869, 568.090427)"><g><path d="M 134.78125 -102.21875 L 134.78125 -84.609375 L 18.6875 -38.171875 L 18.6875 -54.71875 L 116.890625 -93.40625 L 18.6875 -132.109375 L 18.6875 -148.921875 Z M 134.78125 -102.21875 "/></g></g></g><g fill="#ffffff" fill-opacity="1"><g transform="translate(554.656605, 568.090427)"><g><path d="M 18.6875 -186.828125 L 71.53125 -186.828125 L 71.53125 -41.90625 L 160.671875 -41.90625 L 160.671875 0 L 18.6875 0 Z M 18.6875 -186.828125 "/></g></g></g><g fill="#ffffff" fill-opacity="1"><g transform="translate(717.441384, 568.090427)"><g><path d="M 168.671875 -40.828125 L 168.671875 0 L 18.6875 0 L 18.6875 -186.828125 L 165.203125 -186.828125 L 165.203125 -145.984375 L 71 -145.984375 L 71 -114.5 L 154 -114.5 L 154 -75 L 71 -75 L 71 -40.828125 Z M 168.671875 -40.828125 "/></g></g></g><g fill="#ffffff" fill-opacity="1"><g transform="translate(896.77154, 568.090427)"><g><path d="M 143.859375 -97.421875 L 190.5625 -97.421875 L 190.5625 -20.015625 C 179.882812 -12.367188 167.601562 -6.5 153.71875 -2.40625 C 139.84375 1.6875 125.96875 3.734375 112.09375 3.734375 C 92.519531 3.734375 74.90625 -0.398438 59.25 -8.671875 C 43.59375 -16.941406 31.316406 -28.460938 22.421875 -43.234375 C 13.523438 -58.003906 9.078125 -74.726562 9.078125 -93.40625 C 9.078125 -112.09375 13.523438 -128.816406 22.421875 -143.578125 C 31.316406 -158.347656 43.679688 -169.867188 59.515625 -178.140625 C 75.347656 -186.421875 93.226562 -190.5625 113.15625 -190.5625 C 130.59375 -190.5625 146.25 -187.625 160.125 -181.75 C 174.007812 -175.875 185.578125 -167.421875 194.828125 -156.390625 L 161.203125 -125.96875 C 148.566406 -139.851562 133.441406 -146.796875 115.828125 -146.796875 C 99.816406 -146.796875 86.914062 -141.945312 77.125 -132.25 C 67.34375 -122.550781 62.453125 -109.601562 62.453125 -93.40625 C 62.453125 -83.09375 64.675781 -73.882812 69.125 -65.78125 C 73.570312 -57.6875 79.796875 -51.367188 87.796875 -46.828125 C 95.804688 -42.296875 104.972656 -40.03125 115.296875 -40.03125 C 125.441406 -40.03125 134.960938 -42.078125 143.859375 -46.171875 Z M 143.859375 -97.421875 "/></g></g></g><g fill="#ffffff" fill-opacity="1"><g transform="translate(1102.253972, 568.090427)"><g><path d="M 143.859375 -36.296875 L 64.859375 -36.296875 L 50.171875 0 L -3.734375 0 L 78.734375 -186.828125 L 130.78125 -186.828125 L 213.515625 0 L 158.53125 0 Z M 128.375 -75.265625 L 104.359375 -135.046875 L 80.328125 -75.265625 Z M 128.375 -75.265625 "/></g></g></g><g fill="#ffffff" fill-opacity="1"><g transform="translate(1312.00617, 568.090427)"><g><path d="M 111.828125 3.734375 C 92.253906 3.734375 74.679688 -0.398438 59.109375 -8.671875 C 43.546875 -16.941406 31.316406 -28.460938 22.421875 -43.234375 C 13.523438 -58.003906 9.078125 -74.726562 9.078125 -93.40625 C 9.078125 -112.09375 13.523438 -128.816406 22.421875 -143.578125 C 31.316406 -158.347656 43.546875 -169.867188 59.109375 -178.140625 C 74.679688 -186.421875 92.253906 -190.5625 111.828125 -190.5625 C 128.910156 -190.5625 144.300781 -187.535156 158 -181.484375 C 171.695312 -175.429688 183.082031 -166.710938 192.15625 -155.328125 L 158.53125 -124.90625 C 146.4375 -139.5 131.757812 -146.796875 114.5 -146.796875 C 104.351562 -146.796875 95.320312 -144.566406 87.40625 -140.109375 C 79.488281 -135.660156 73.347656 -129.390625 68.984375 -121.296875 C 64.628906 -113.203125 62.453125 -103.90625 62.453125 -93.40625 C 62.453125 -82.914062 64.628906 -73.617188 68.984375 -65.515625 C 73.347656 -57.421875 79.488281 -51.148438 87.40625 -46.703125 C 95.320312 -42.253906 104.351562 -40.03125 114.5 -40.03125 C 131.757812 -40.03125 146.4375 -47.328125 158.53125 -61.921875 L 192.15625 -31.5 C 183.082031 -20.101562 171.695312 -11.378906 158 -5.328125 C 144.300781 0.710938 128.910156 3.734375 111.828125 3.734375 Z M 111.828125 3.734375 "/></g></g></g><g fill="#ffffff" fill-opacity="1"><g transform="translate(1508.949069, 568.090427)"><g><path d="M 118.765625 -66.984375 L 118.765625 0 L 65.921875 0 L 65.921875 -67.796875 L -5.34375 -186.828125 L 50.4375 -186.828125 L 94.75 -112.625 L 139.046875 -186.828125 L 190.296875 -186.828125 Z M 118.765625 -66.984375 "/></g></g></g><g fill="#ffffff" fill-opacity="1"><g transform="translate(1700.472029, 568.090427)"><g><path d="M 186.5625 -186.828125 L 186.5625 0 L 167.078125 0 L 167.078125 -86.203125 L 50.171875 -86.203125 L 50.171875 0 L 30.421875 0 L 30.421875 -186.828125 L 50.171875 -186.828125 L 50.171875 -103.546875 L 167.078125 -103.546875 L 167.078125 -186.828125 Z M 186.5625 -186.828125 "/></g></g></g><g fill="#ffffff" fill-opacity="1"><g transform="translate(1917.429453, 568.090427)"><g><path d="M 162.53125 -17.078125 L 162.53125 0 L 30.421875 0 L 30.421875 -186.828125 L 158.53125 -186.828125 L 158.53125 -169.75 L 50.171875 -169.75 L 50.171875 -103.28125 L 146.796875 -103.28125 L 146.796875 -86.46875 L 50.171875 -86.46875 L 50.171875 -17.078125 Z M 162.53125 -17.078125 "/></g></g></g><g fill="#ffffff" fill-opacity="1"><g transform="translate(2095.958984, 568.090427)"><g><path d="M 158 0 L 115.296875 -60.046875 C 110.492188 -59.515625 105.507812 -59.25 100.34375 -59.25 L 50.171875 -59.25 L 50.171875 0 L 30.421875 0 L 30.421875 -186.828125 L 100.34375 -186.828125 C 124.1875 -186.828125 142.867188 -181.128906 156.390625 -169.734375 C 169.921875 -158.347656 176.6875 -142.691406 176.6875 -122.765625 C 176.6875 -108.179688 172.992188 -95.859375 165.609375 -85.796875 C 158.222656 -75.742188 147.679688 -68.492188 133.984375 -64.046875 L 179.625 0 Z M 99.8125 -76.0625 C 118.320312 -76.0625 132.46875 -80.15625 142.25 -88.34375 C 152.039062 -96.53125 156.9375 -108.003906 156.9375 -122.765625 C 156.9375 -137.890625 152.039062 -149.5 142.25 -157.59375 C 132.46875 -165.695312 118.320312 -169.75 99.8125 -169.75 L 50.171875 -169.75 L 50.171875 -76.0625 Z M 99.8125 -76.0625 "/></g></g></g><g fill="#ffffff" fill-opacity="1"><g transform="translate(2288.899059, 568.090427)"><g><path d="M 112.09375 1.59375 C 93.59375 1.59375 76.820312 -2.539062 61.78125 -10.8125 C 46.75 -19.082031 35.003906 -30.421875 26.546875 -44.828125 C 18.097656 -59.242188 13.875 -75.4375 13.875 -93.40625 C 13.875 -111.382812 18.097656 -127.578125 26.546875 -141.984375 C 35.003906 -156.398438 46.75 -167.742188 61.78125 -176.015625 C 76.820312 -184.285156 93.59375 -188.421875 112.09375 -188.421875 C 130.59375 -188.421875 147.269531 -184.328125 162.125 -176.140625 C 176.988281 -167.960938 188.691406 -156.625 197.234375 -142.125 C 205.773438 -127.625 210.046875 -111.382812 210.046875 -93.40625 C 210.046875 -75.4375 205.773438 -59.203125 197.234375 -44.703125 C 188.691406 -30.203125 176.988281 -18.859375 162.125 -10.671875 C 147.269531 -2.492188 130.59375 1.59375 112.09375 1.59375 Z M 112.09375 -16.015625 C 126.863281 -16.015625 140.207031 -19.347656 152.125 -26.015625 C 164.050781 -32.691406 173.394531 -41.945312 180.15625 -53.78125 C 186.914062 -65.613281 190.296875 -78.820312 190.296875 -93.40625 C 190.296875 -108 186.914062 -121.210938 180.15625 -133.046875 C 173.394531 -144.878906 164.050781 -154.128906 152.125 -160.796875 C 140.207031 -167.472656 126.863281 -170.8125 112.09375 -170.8125 C 97.320312 -170.8125 83.929688 -167.472656 71.921875 -160.796875 C 59.910156 -154.128906 50.476562 -144.878906 43.625 -133.046875 C 36.78125 -121.210938 33.359375 -108 33.359375 -93.40625 C 33.359375 -78.820312 36.78125 -65.613281 43.625 -53.78125 C 50.476562 -41.945312 59.910156 -32.691406 71.921875 -26.015625 C 83.929688 -19.347656 97.320312 -16.015625 112.09375 -16.015625 Z M 112.09375 -16.015625 "/></g></g></g><g fill="#ffffff" fill-opacity="1"><g transform="translate(2512.794865, 568.090427)"><g><path d="M 162.53125 -17.078125 L 162.53125 0 L 30.421875 0 L 30.421875 -186.828125 L 158.53125 -186.828125 L 158.53125 -169.75 L 50.171875 -169.75 L 50.171875 -103.28125 L 146.796875 -103.28125 L 146.796875 -86.46875 L 50.171875 -86.46875 L 50.171875 -17.078125 Z M 162.53125 -17.078125 "/></g></g></g><g fill="#ffffff" fill-opacity="1"><g transform="translate(2691.324396, 568.090427)"><g><path d="M 81.9375 1.59375 C 68.0625 1.59375 54.757812 -0.628906 42.03125 -5.078125 C 29.3125 -9.523438 19.484375 -15.394531 12.546875 -22.6875 L 20.28125 -37.90625 C 27.039062 -31.132812 36.023438 -25.660156 47.234375 -21.484375 C 58.441406 -17.304688 70.007812 -15.21875 81.9375 -15.21875 C 98.65625 -15.21875 111.195312 -18.285156 119.5625 -24.421875 C 127.925781 -30.554688 132.109375 -38.519531 132.109375 -48.3125 C 132.109375 -55.78125 129.835938 -61.738281 125.296875 -66.1875 C 120.765625 -70.632812 115.207031 -74.054688 108.625 -76.453125 C 102.039062 -78.859375 92.878906 -81.488281 81.140625 -84.34375 C 67.078125 -87.894531 55.863281 -91.316406 47.5 -94.609375 C 39.144531 -97.898438 31.984375 -102.925781 26.015625 -109.6875 C 20.054688 -116.445312 17.078125 -125.613281 17.078125 -137.1875 C 17.078125 -146.613281 19.566406 -155.195312 24.546875 -162.9375 C 29.535156 -170.675781 37.1875 -176.859375 47.5 -181.484375 C 57.820312 -186.109375 70.632812 -188.421875 85.9375 -188.421875 C 96.613281 -188.421875 107.066406 -186.953125 117.296875 -184.015625 C 127.523438 -181.085938 136.378906 -177.039062 143.859375 -171.875 L 137.1875 -156.125 C 129.351562 -161.289062 120.988281 -165.160156 112.09375 -167.734375 C 103.195312 -170.316406 94.476562 -171.609375 85.9375 -171.609375 C 69.570312 -171.609375 57.25 -168.445312 48.96875 -162.125 C 40.695312 -155.8125 36.5625 -147.675781 36.5625 -137.71875 C 36.5625 -130.238281 38.828125 -124.226562 43.359375 -119.6875 C 47.898438 -115.15625 53.59375 -111.6875 60.4375 -109.28125 C 67.289062 -106.882812 76.503906 -104.265625 88.078125 -101.421875 C 101.773438 -98.035156 112.847656 -94.695312 121.296875 -91.40625 C 129.753906 -88.113281 136.914062 -83.128906 142.78125 -76.453125 C 148.65625 -69.785156 151.59375 -60.757812 151.59375 -49.375 C 151.59375 -39.945312 149.054688 -31.363281 143.984375 -23.625 C 138.910156 -15.882812 131.125 -9.742188 120.625 -5.203125 C 110.132812 -0.671875 97.238281 1.59375 81.9375 1.59375 Z M 81.9375 1.59375 "/></g></g></g></svg>